<svg version="1.2" xmlns="http://www.w3.org/2000/svg" viewBox="0 0 576 512" width="576" height="512">
	<title>eye-solid-svg</title>
	<style>
		.s0 { fill: #2a78ab } 
	</style>
	<path id="Layer" fill-rule="evenodd" class="s0" d="m480.6 112.6c46.8 43.4 78.1 95.4 93 131.1 3.3 7.9 3.3 16.7 0 24.6-14.9 35.7-46.2 87.6-93 131.1-47.1 43.8-111.8 80.6-192.6 80.6-80.8 0-145.5-36.8-192.6-80.6-46.8-43.4-78.1-95.4-92.9-131.1-3.3-7.9-3.3-16.7 0-24.6 14.8-35.7 46.1-87.7 92.9-131.1 47.1-43.8 111.8-80.6 192.6-80.6 80.8 0 145.5 36.8 192.6 80.6zm-192.6-0.6c-79.5 0-144 64.5-144 144 0 79.5 64.5 144 144 144 79.5 0 144-64.5 144-144 0-79.5-64.5-144-144-144zm-8.4 48.4c2.8-0.3 5.6-0.4 8.4-0.4 53 0 96 43 96 96 0 53-43 96-96 96-53 0-96-43-96-96 0-2.9 0.2-5.6 0.4-8.4 9.3 5.4 20.1 8.4 31.6 8.4 35.3 0 64-28.7 64-64 0-11.5-3.1-22.3-8.4-31.6z"/>
</svg>