<svg version="1.2" xmlns="http://www.w3.org/2000/svg" viewBox="0 0 576 512" width="576" height="512">
	<title>house-solid-svg</title>
	<style>
		.s0 { fill: #2a78ab } 
	</style>
	<path id="Layer" class="s0" d="m575.8 255.5c0 18-15 32.1-32 32.1h-32l0.7 160.2c0 2.7-0.2 5.4-0.5 8.1v16.1c0 22.1-17.9 40-40 40h-16c-1.1 0-2.2 0-3.3-0.1-1.4 0.1-2.8 0.1-4.2 0.1h-32.5-24c-22.1 0-40-17.9-40-40v-24-64c0-17.7-14.3-32-32-32h-64c-17.7 0-32 14.3-32 32v64 24c0 22.1-17.9 40-40 40h-24-31.9c-1.5 0-3-0.1-4.5-0.2-1.2 0.1-2.4 0.2-3.6 0.2h-16c-22.1 0-40-17.9-40-40v-112c0-0.9 0-1.9 0.1-2.8v-69.6h-32.1c-18 0-32-14-32-32.1 0-9 3-17 10-24l256.4-223.5c7-7 15-8 22-8 7 0 15 2 21 7l255.4 224.5c8 7 12 15 11 24z"/>
</svg>