<svg version="1.2" xmlns="http://www.w3.org/2000/svg" viewBox="0 0 448 512" width="448" height="512">
	<title>linkedin-in-svg</title>
	<style>
		.s0 { fill: #000bac } 
	</style>
	<path id="Layer" class="s0" d="m100.3 448h-92.9v-299.1h92.9zm-46.5-339.9c-29.7 0-53.8-24.6-53.8-54.3 0-14.3 5.7-27.9 15.8-38 10-10.1 23.7-15.8 38-15.8 14.3 0 27.9 5.7 38 15.8 10.1 10.1 15.8 23.7 15.8 38 0 29.7-24.1 54.3-53.8 54.3zm394.1 339.9h-92.7v-145.6c0-34.7-0.7-79.2-48.3-79.2-48.3 0-55.7 37.7-55.7 76.7v148.1h-92.7v-299.1h89v40.8h1.3c12.4-23.5 42.7-48.3 87.9-48.3 94 0 111.3 61.9 111.3 142.3v164.3z"/>
</svg>